#Comment line ignore any data following # character 
#Hierarchical Translation and Rotation (.htr) file 
[Header]	
#Header keywords are followed by a single value 
FileType HTR		#Single word string
DataType HTRS		#Translation followed by rotation and scale data
FileVersion 1		#integer
NumSegments 84		#integer
NumFrames 2		#integer
DataFrameRate 30		#integer, data frame rate in this file
EulerRotationOrder ZYX
CalibrationUnits mm
RotationUnits Degrees
GlobalAxisofGravity Y
BoneLengthAxis Y
ScaleFactor 1.00
[SegmentNames&Hierarchy]
#CHILD	PARENT
MASTER GLOBAL
root MASTER
chest root
L_mid_tent01 root
R_mid_tent01 root
spine01 root
Bip01_Neck chest
L_humerus chest
R_humerus chest
weapon_bone chest
Bip01_Head Bip01_Neck
eye_left_bone Bip01_Head
eye_right_bone Bip01_Head
L_forearm L_humerus
L_front_hand L_forearm
L_weapon_bone L_forearm
L_front_hand01_01 L_front_hand
L_front_hand02_01 L_front_hand
L_front_hand03_01 L_front_hand
L_front_hand01_02 L_front_hand01_01
L_front_hand02_02 L_front_hand02_01
L_front_hand03_02 L_front_hand03_01
R_forearm R_humerus
R_front_hand R_forearm
R_weapon_bone R_forearm
R_front_hand01_01 R_front_hand
R_front_hand02_01 R_front_hand
R_front_hand03_01 R_front_hand
R_front_hand01_02 R_front_hand01_01
R_front_hand02_02 R_front_hand02_01
R_front_hand03_02 R_front_hand03_01
null_rope01_connect L_mid_tent01
Rope1_Seg01 null_rope01_connect
Rope1_Seg02 Rope1_Seg01
Rope1_Seg03 Rope1_Seg02
Rope1_Seg04 Rope1_Seg03
Rope1_Seg05 Rope1_Seg04
Rope1_Seg06 Rope1_Seg05
Rope1_Seg07 Rope1_Seg06
Rope1_Seg09 Rope1_Seg07
L_mid_hand01 Rope1_Seg09
L_mid_hand02 Rope1_Seg09
L_mid_hand03 Rope1_Seg09
null_rope02_connect R_mid_tent01
Rope2_Seg01 null_rope02_connect
Rope2_Seg02 Rope2_Seg01
Rope2_Seg03 Rope2_Seg02
Rope2_Seg04 Rope2_Seg03
Rope2_Seg05 Rope2_Seg04
Rope2_Seg06 Rope2_Seg05
Rope2_Seg07 Rope2_Seg06
Rope2_Seg09 Rope2_Seg07
R_mid_hand01 Rope2_Seg09
R_mid_hand02 Rope2_Seg09
R_mid_hand03 Rope2_Seg09
spine02 spine01
spine03 spine02
pelvis spine03
null_rope03_connect pelvis
null_rope04_connect pelvis
Rope3_Seg01 null_rope03_connect
Rope3_Seg02 Rope3_Seg01
Rope3_Seg03 Rope3_Seg02
Rope3_Seg04 Rope3_Seg03
Rope3_Seg05 Rope3_Seg04
Rope3_Seg06 Rope3_Seg05
Rope3_Seg07 Rope3_Seg06
Rope3_Seg08 Rope3_Seg07
Rope3_Seg09 Rope3_Seg08
R_rear_hand01 Rope3_Seg09
R_rear_hand02 Rope3_Seg09
R_rear_hand03 Rope3_Seg09
Rope4_Seg01 null_rope04_connect
Rope4_Seg02 Rope4_Seg01
Rope4_Seg03 Rope4_Seg02
Rope4_Seg04 Rope4_Seg03
Rope4_Seg05 Rope4_Seg04
Rope4_Seg06 Rope4_Seg05
Rope4_Seg07 Rope4_Seg06
Rope4_Seg08 Rope4_Seg07
Rope4_Seg09 Rope4_Seg08
L_rear_hand01 Rope4_Seg09
L_rear_hand02 Rope4_Seg09
L_rear_hand03 Rope4_Seg09
[BasePosition]
#SegmentName Tx, Ty, Tz, Rx, Ry, Rz, BoneLength
MASTER 0.000000 0.000000 0.000000 -90.000000 0.000000 0.000000 10.000000 
root 0.000000 0.000000 0.000000 0.000000 0.000000 0.000000 10.000000 
chest 0.000000 0.000000 0.000000 0.000000 0.000000 0.000000 10.000000 
L_mid_tent01 0.000000 0.000000 0.000000 0.000000 0.000000 0.000000 10.000000 
R_mid_tent01 0.000000 0.000000 0.000000 0.000000 0.000000 0.000000 10.000000 
spine01 0.000000 0.000000 0.000000 0.000000 0.000000 0.000000 10.000000 
Bip01_Neck 0.000000 0.000000 0.000000 0.000000 0.000000 0.000000 10.000000 
L_humerus 0.000000 0.000000 0.000000 0.000000 0.000000 0.000000 10.000000 
R_humerus 0.000000 0.000000 0.000000 0.000000 0.000000 0.000000 10.000000 
weapon_bone 0.000000 0.000000 0.000000 0.000000 0.000000 0.000000 10.000000 
Bip01_Head 0.000000 0.000000 0.000000 0.000000 0.000000 0.000000 10.000000 
eye_left_bone 0.000000 0.000000 0.000000 0.000000 0.000000 0.000000 10.000000 
eye_right_bone 0.000000 0.000000 0.000000 0.000000 0.000000 0.000000 10.000000 
L_forearm 0.000000 0.000000 0.000000 0.000000 0.000000 0.000000 10.000000 
L_front_hand 0.000000 0.000000 0.000000 0.000000 0.000000 0.000000 10.000000 
L_weapon_bone 0.000000 0.000000 0.000000 0.000000 0.000000 0.000000 10.000000 
L_front_hand01_01 0.000000 0.000000 0.000000 0.000000 0.000000 0.000000 10.000000 
L_front_hand02_01 0.000000 0.000000 0.000000 0.000000 0.000000 0.000000 10.000000 
L_front_hand03_01 0.000000 0.000000 0.000000 0.000000 0.000000 0.000000 10.000000 
L_front_hand01_02 0.000000 0.000000 0.000000 0.000000 0.000000 0.000000 10.000000 
L_front_hand02_02 0.000000 0.000000 0.000000 0.000000 0.000000 0.000000 10.000000 
L_front_hand03_02 0.000000 0.000000 0.000000 0.000000 0.000000 0.000000 10.000000 
R_forearm 0.000000 0.000000 0.000000 0.000000 0.000000 0.000000 10.000000 
R_front_hand 0.000000 0.000000 0.000000 0.000000 0.000000 0.000000 10.000000 
R_weapon_bone 0.000000 0.000000 0.000000 0.000000 0.000000 0.000000 10.000000 
R_front_hand01_01 0.000000 0.000000 0.000000 0.000000 0.000000 0.000000 10.000000 
R_front_hand02_01 0.000000 0.000000 0.000000 0.000000 0.000000 0.000000 10.000000 
R_front_hand03_01 0.000000 0.000000 0.000000 0.000000 0.000000 0.000000 10.000000 
R_front_hand01_02 0.000000 0.000000 0.000000 0.000000 0.000000 0.000000 10.000000 
R_front_hand02_02 0.000000 0.000000 0.000000 0.000000 0.000000 0.000000 10.000000 
R_front_hand03_02 0.000000 0.000000 0.000000 0.000000 0.000000 0.000000 10.000000 
null_rope01_connect 0.000000 0.000000 0.000000 0.000000 0.000000 0.000000 10.000000 
Rope1_Seg01 0.000000 0.000000 0.000000 0.000000 0.000000 0.000000 10.000000 
Rope1_Seg02 0.000000 0.000000 0.000000 0.000000 0.000000 0.000000 10.000000 
Rope1_Seg03 0.000000 0.000000 0.000000 0.000000 0.000000 0.000000 10.000000 
Rope1_Seg04 0.000000 0.000000 0.000000 0.000000 0.000000 0.000000 10.000000 
Rope1_Seg05 0.000000 0.000000 0.000000 0.000000 0.000000 0.000000 10.000000 
Rope1_Seg06 0.000000 0.000000 0.000000 0.000000 0.000000 0.000000 10.000000 
Rope1_Seg07 0.000000 0.000000 0.000000 0.000000 0.000000 0.000000 10.000000 
Rope1_Seg09 0.000000 0.000000 0.000000 0.000000 0.000000 0.000000 10.000000 
L_mid_hand01 0.000000 0.000000 0.000000 0.000000 0.000000 0.000000 10.000000 
L_mid_hand02 0.000000 0.000000 0.000000 0.000000 0.000000 0.000000 10.000000 
L_mid_hand03 0.000000 0.000000 0.000000 0.000000 0.000000 0.000000 10.000000 
null_rope02_connect 0.000000 0.000000 0.000000 0.000000 0.000000 0.000000 10.000000 
Rope2_Seg01 0.000000 0.000000 0.000000 0.000000 0.000000 0.000000 10.000000 
Rope2_Seg02 0.000000 0.000000 0.000000 0.000000 0.000000 0.000000 10.000000 
Rope2_Seg03 0.000000 0.000000 0.000000 0.000000 0.000000 0.000000 10.000000 
Rope2_Seg04 0.000000 0.000000 0.000000 0.000000 0.000000 0.000000 10.000000 
Rope2_Seg05 0.000000 0.000000 0.000000 0.000000 0.000000 0.000000 10.000000 
Rope2_Seg06 0.000000 0.000000 0.000000 0.000000 0.000000 0.000000 10.000000 
Rope2_Seg07 0.000000 0.000000 0.000000 0.000000 0.000000 0.000000 10.000000 
Rope2_Seg09 0.000000 0.000000 0.000000 0.000000 0.000000 0.000000 10.000000 
R_mid_hand01 0.000000 0.000000 0.000000 0.000000 0.000000 0.000000 10.000000 
R_mid_hand02 0.000000 0.000000 0.000000 0.000000 0.000000 0.000000 10.000000 
R_mid_hand03 0.000000 0.000000 0.000000 0.000000 0.000000 0.000000 10.000000 
spine02 0.000000 0.000000 0.000000 0.000000 0.000000 0.000000 10.000000 
spine03 0.000000 0.000000 0.000000 0.000000 0.000000 0.000000 10.000000 
pelvis 0.000000 0.000000 0.000000 0.000000 0.000000 0.000000 10.000000 
null_rope03_connect 0.000000 0.000000 0.000000 0.000000 0.000000 0.000000 10.000000 
null_rope04_connect 0.000000 0.000000 0.000000 0.000000 0.000000 0.000000 10.000000 
Rope3_Seg01 0.000000 0.000000 0.000000 0.000000 0.000000 0.000000 10.000000 
Rope3_Seg02 0.000000 0.000000 0.000000 0.000000 0.000000 0.000000 10.000000 
Rope3_Seg03 0.000000 0.000000 0.000000 0.000000 0.000000 0.000000 10.000000 
Rope3_Seg04 0.000000 0.000000 0.000000 0.000000 0.000000 0.000000 10.000000 
Rope3_Seg05 0.000000 0.000000 0.000000 0.000000 0.000000 0.000000 10.000000 
Rope3_Seg06 0.000000 0.000000 0.000000 0.000000 0.000000 0.000000 10.000000 
Rope3_Seg07 0.000000 0.000000 0.000000 0.000000 0.000000 0.000000 10.000000 
Rope3_Seg08 0.000000 0.000000 0.000000 0.000000 0.000000 0.000000 10.000000 
Rope3_Seg09 0.000000 0.000000 0.000000 0.000000 0.000000 0.000000 10.000000 
R_rear_hand01 0.000000 0.000000 0.000000 0.000000 0.000000 0.000000 10.000000 
R_rear_hand02 0.000000 0.000000 0.000000 0.000000 0.000000 0.000000 10.000000 
R_rear_hand03 0.000000 0.000000 0.000000 0.000000 0.000000 0.000000 10.000000 
Rope4_Seg01 0.000000 0.000000 0.000000 0.000000 0.000000 0.000000 10.000000 
Rope4_Seg02 0.000000 0.000000 0.000000 0.000000 0.000000 0.000000 10.000000 
Rope4_Seg03 0.000000 0.000000 0.000000 0.000000 0.000000 0.000000 10.000000 
Rope4_Seg04 0.000000 0.000000 0.000000 0.000000 0.000000 0.000000 10.000000 
Rope4_Seg05 0.000000 0.000000 0.000000 0.000000 0.000000 0.000000 10.000000 
Rope4_Seg06 0.000000 0.000000 0.000000 0.000000 0.000000 0.000000 10.000000 
Rope4_Seg07 0.000000 0.000000 0.000000 0.000000 0.000000 0.000000 10.000000 
Rope4_Seg08 0.000000 0.000000 0.000000 0.000000 0.000000 0.000000 10.000000 
Rope4_Seg09 0.000000 0.000000 0.000000 0.000000 0.000000 0.000000 10.000000 
L_rear_hand01 0.000000 0.000000 0.000000 0.000000 0.000000 0.000000 10.000000 
L_rear_hand02 0.000000 0.000000 0.000000 0.000000 0.000000 0.000000 10.000000 
L_rear_hand03 0.000000 0.000000 0.000000 0.000000 0.000000 0.000000 10.000000 
#Beginning of Data. Separated by tabs
#Fr	Tx	Ty	Tz	Rx	Ry	Rz	SF
[MASTER]
24 0.000005 62.822109 0.000000 0.001660 0.001660 0.001660 62.822113
25 0.000005 62.822109 0.000000 0.001660 0.001660 0.001660 62.822113
[root]
24 -16.502295 -62.822117 1500.000000 -93.938805 -31.045980 -50.385986 1501.405640
25 -16.502295 -62.822117 1500.000000 -93.838211 -30.653452 -52.039349 1501.405640
[chest]
24 -84.512650 -34.090519 0.000000 7.139200 -20.673603 173.681396 91.129311
25 -84.512650 -34.090519 0.000000 6.177088 -19.385149 174.444290 91.129311
[L_mid_tent01]
24 27.299507 22.177519 -249.917999 -55.267433 68.990364 73.336739 252.380875
25 27.299503 22.177523 -249.917999 -102.920631 74.759300 36.044254 252.380875
[R_mid_tent01]
24 23.228794 24.509907 226.238495 137.263428 8.112162 115.337364 228.744751
25 23.228794 24.509907 226.238495 137.283325 7.652983 112.532593 228.744751
[spine01]
24 -0.361383 -0.195265 0.000000 -0.297128 0.339800 11.509043 0.410763
25 -0.361383 -0.195265 0.000000 -0.235925 0.349061 11.727926 0.410763
[Bip01_Neck]
24 165.484543 71.581718 0.000119 175.896118 1.177290 24.871183 180.302734
25 165.484543 71.581718 0.000119 175.896118 1.177290 24.871183 180.302734
[L_humerus]
24 -13.983130 -135.272980 -120.471481 61.244244 44.727695 159.788589 181.680161
25 -13.983130 -135.272980 -120.471481 59.477398 43.034340 158.254242 181.680161
[R_humerus]
24 -13.983309 -135.273102 125.287651 95.963974 -7.635243 7.675822 184.909012
25 -13.983309 -135.273102 125.287651 96.338989 -5.201514 5.807037 184.909012
[weapon_bone]
24 235.964890 -300.705902 0.000000 0.000000 -89.951546 -128.212341 382.234833
25 235.964890 -300.705902 0.000000 0.000000 -89.951546 -128.212341 382.234833
[Bip01_Head]
24 261.355835 108.959541 -2.864215 26.603317 5.842532 -62.458584 283.173553
25 261.355835 108.959549 -2.864214 21.731363 5.843105 -62.453773 283.173553
[eye_left_bone]
24 -24.626970 125.451866 -64.772606 0.000000 -90.000000 -99.840431 143.318359
25 -24.626970 125.451866 -64.772606 0.000000 -90.000000 -99.840431 143.318359
[eye_right_bone]
24 -24.626970 125.451866 64.327362 0.000000 -89.960434 80.159386 143.117676
25 -24.626970 125.451866 64.327362 0.000000 -89.960434 80.159386 143.117676
[L_forearm]
24 322.776093 0.000000 -0.000119 0.000183 0.002340 -81.045212 322.776093
25 322.776093 0.000000 -0.000119 0.000183 0.002340 -81.045212 322.776093
[L_front_hand]
24 241.149185 -0.042021 -3.300071 -178.663147 -1.834274 -27.422415 241.171753
25 241.149185 -0.042021 -3.300071 -178.663147 -1.834274 -27.422415 241.171753
[L_weapon_bone]
24 156.183838 0.000000 0.000000 0.001660 0.001660 0.001660 156.183838
25 156.183838 0.000000 0.000000 0.001660 0.001660 0.001660 156.183838
[L_front_hand01_01]
24 86.095154 20.947098 -0.655860 -0.345317 -0.486854 72.912170 88.609184
25 86.095154 20.947098 -0.655860 -0.356982 -0.478273 74.743149 88.609184
[L_front_hand02_01]
24 86.935165 -11.437475 24.513514 150.702225 -58.745255 -57.069328 91.046425
25 86.935165 -11.437475 24.513514 153.413101 -59.602676 -60.220360 91.046425
[L_front_hand03_01]
24 86.637497 -14.123976 -20.424902 -150.477081 56.962112 -58.627880 90.126129
25 86.637497 -14.123976 -20.424902 -152.996307 57.831280 -61.621593 90.126129
[L_front_hand01_02]
24 71.020905 -0.000179 0.000030 0.000288 -0.002329 -104.095474 71.020905
25 71.020905 -0.000179 0.000030 0.000322 -0.002325 -105.791725 71.020905
[L_front_hand02_02]
24 71.020927 -0.000119 0.000060 0.000288 -0.002329 -104.095474 71.020927
25 71.020927 -0.000119 0.000060 0.000322 -0.002325 -105.791725 71.020927
[L_front_hand03_02]
24 71.020905 -0.000060 0.000060 0.000288 -0.002329 -104.095474 71.020905
25 71.020905 -0.000060 0.000060 0.000322 -0.002325 -105.791725 71.020905
[R_forearm]
24 322.776428 -0.000060 0.000030 0.045808 -0.207086 -13.342385 322.776428
25 322.776428 -0.000060 0.000030 0.054000 -0.205678 -15.166657 322.776428
[R_front_hand]
24 238.847015 -0.006795 2.210259 -0.105327 1.718990 7.726968 238.857239
25 238.847015 -0.006795 2.210259 -0.217857 1.708353 3.970670 238.857239
[R_weapon_bone]
24 155.664093 0.002503 -0.000030 0.002497 -0.002704 -31.830994 155.664078
25 155.664093 0.002503 -0.000030 0.002497 -0.002704 -31.830994 155.664078
[R_front_hand01_01]
24 87.624611 14.231146 22.918642 -150.912338 -58.813934 57.420856 91.683487
25 87.624611 14.231146 22.918642 -153.643463 -59.667904 60.598656 91.683487
[R_front_hand02_01]
24 89.356956 14.367283 -19.491137 151.115067 57.173233 59.623844 92.579636
25 89.356956 14.367283 -19.491137 153.664169 58.024693 62.644173 92.579636
[R_front_hand03_01]
24 87.286232 -22.307278 -0.143439 0.145044 -0.432477 -73.294495 90.091743
25 87.286232 -22.307278 -0.143439 0.155872 -0.427083 -75.130119 90.091743
[R_front_hand01_02]
24 71.020905 0.000060 0.000119 0.002329 -0.000288 104.097519 71.020905
25 71.020905 0.000060 0.000119 0.002325 -0.000322 105.787560 71.020905
[R_front_hand02_02]
24 71.020844 -0.000030 -0.000119 0.002329 -0.000288 104.097519 71.020836
25 71.020844 -0.000030 -0.000119 0.002325 -0.000322 105.787560 71.020836
[R_front_hand03_02]
24 71.020905 0.000000 0.000030 0.002329 -0.000288 104.097519 71.020905
25 71.020905 0.000000 0.000030 0.002325 -0.000322 105.787560 71.020905
[null_rope01_connect]
24 328.732483 0.000000 -0.000238 167.564026 -1.136407 -126.009666 328.732483
25 328.732483 0.000000 -0.000238 169.196579 15.736645 -130.610260 328.732483
[Rope1_Seg01]
24 0.000000 0.000000 0.000000 103.956802 -42.775368 174.758423 0.000000
25 0.000000 0.000000 0.000000 46.976189 -37.930351 -118.826141 0.000000
[Rope1_Seg02]
24 139.999863 -0.000179 0.000000 4.890846 -12.830626 -24.661476 139.999863
25 139.999863 -0.000179 0.000000 22.989149 -7.303903 -31.584219 139.999863
[Rope1_Seg03]
24 139.999924 0.000060 -0.000060 7.885844 -4.675786 -26.588316 139.999924
25 139.999924 0.000060 -0.000060 39.809349 -14.136910 -33.507175 139.999924
[Rope1_Seg04]
24 139.999924 -0.000060 -0.000119 6.428363 -11.788720 -7.254411 139.999924
25 139.999924 -0.000060 -0.000119 13.132585 -18.736187 -3.536310 139.999924
[Rope1_Seg05]
24 139.999832 0.000119 -0.000060 -1.641428 -27.671219 13.151980 139.999832
25 139.999832 0.000119 -0.000060 -2.676440 -36.094109 20.110704 139.999832
[Rope1_Seg06]
24 139.999954 0.000119 -0.000060 -3.755813 -18.069023 8.426517 139.999954
25 139.999954 0.000119 -0.000060 -5.893003 -23.444130 13.330225 139.999954
[Rope1_Seg07]
24 139.999985 0.000060 0.000000 -2.676760 -8.229369 2.550358 139.999985
25 139.999985 0.000060 0.000000 -3.321893 -9.056578 3.789299 139.999985
[Rope1_Seg09]
24 121.602913 0.000119 -0.000089 -89.793175 -1.359789 0.847147 121.602913
25 121.602913 0.000119 -0.000089 -89.793175 -1.359789 0.847147 121.602913
[L_mid_hand01]
24 103.859421 1.038730 8.195221 105.620987 -22.988335 -6.761934 104.187431
25 103.859421 1.038730 8.195221 105.620987 -22.988335 -6.761933 104.187431
[L_mid_hand02]
24 105.572853 -4.139662 -10.864139 -139.491974 20.327141 -21.528740 106.211075
25 105.572853 -4.139662 -10.864139 -139.491974 20.327143 -21.528740 106.211075
[L_mid_hand03]
24 104.641464 17.579376 -3.913581 -17.354424 7.254999 25.905664 106.179977
25 104.641464 17.579376 -3.913581 -17.354422 7.254999 25.905664 106.179977
[null_rope02_connect]
24 328.732849 0.000179 -0.000119 -77.486069 9.308866 95.633118 328.732849
25 328.732849 0.000179 -0.000119 -76.146416 11.105434 94.111046 328.732849
[Rope2_Seg01]
24 -0.000052 0.000146 0.000055 52.867554 57.966633 167.413025 0.000164
25 -0.000051 0.000146 0.000051 62.963001 58.146023 178.545731 0.000163
[Rope2_Seg02]
24 139.999741 -0.000060 -0.000119 -1.203098 -9.763404 -1.762118 139.999756
25 139.999741 -0.000060 -0.000119 -1.055038 -11.420668 -2.258981 139.999756
[Rope2_Seg03]
24 140.000107 0.000030 0.000000 -1.869414 -6.391387 -3.411882 140.000107
25 140.000107 0.000030 0.000000 -1.847727 -7.123335 -3.903375 140.000107
[Rope2_Seg04]
24 139.999802 0.000000 -0.000060 -0.924789 -3.709408 -0.730459 139.999802
25 139.999802 0.000000 -0.000060 -1.061607 -4.573016 -0.891474 139.999802
[Rope2_Seg05]
24 139.999985 -0.000060 0.000119 1.924760 -1.105521 4.896590 139.999985
25 139.999985 -0.000060 0.000119 1.586550 -2.966564 5.157569 139.999985
[Rope2_Seg06]
24 139.999893 -0.000030 -0.000119 2.617264 -0.079790 5.294995 139.999893
25 139.999893 -0.000030 -0.000119 2.398346 -1.875772 5.456143 139.999893
[Rope2_Seg07]
24 139.999893 0.000060 -0.000060 1.136640 -0.373178 2.377134 139.999893
25 139.999893 0.000060 -0.000060 1.100621 -1.323593 2.511735 139.999893
[Rope2_Seg09]
24 121.338966 0.000089 -0.000060 33.793236 -1.359788 -0.847141 121.338966
25 121.338966 0.000089 -0.000060 33.793236 -1.359788 -0.847141 121.338966
[R_mid_hand01]
24 104.680779 11.144459 -10.335981 -44.070736 19.764444 21.986286 105.778534
25 104.680779 11.144459 -10.335981 -44.070736 19.764444 21.986286 105.778534
[R_mid_hand02]
24 104.070427 2.443552 8.231699 74.148849 -24.768805 7.320621 104.424065
25 104.070427 2.443552 8.231699 74.148849 -24.768805 7.320618 104.424065
[R_mid_hand03]
24 106.028137 -11.221827 -5.996406 -166.566208 8.416404 -28.789036 106.788818
25 106.028137 -11.221827 -5.996406 -166.566208 8.416404 -28.789036 106.788818
[spine02]
24 129.756927 0.001550 0.000119 -0.056299 -3.951839 -7.077438 129.756927
25 129.756927 0.001550 0.000119 -0.066510 -3.957001 -6.915971 129.756927
[spine03]
24 79.115662 -0.000233 0.000000 1.907030 -2.965994 23.921791 79.115662
25 79.115654 -0.000215 0.000000 1.907030 -2.965995 23.921795 79.115654
[pelvis]
24 169.435242 0.051022 0.000000 118.105583 3.258630 -4.225062 169.435257
25 169.435242 0.051022 0.000000 98.126770 3.389087 -4.240499 169.435257
[null_rope03_connect]
24 -1.257226 -2.466202 137.391083 -12.283348 22.751766 45.193645 137.418976
25 -1.257226 -2.466202 137.391083 1.357863 7.663195 50.725395 137.418976
[null_rope04_connect]
24 -1.259640 -2.480268 -137.844437 -12.283348 22.751766 45.193645 137.872513
25 -1.259640 -2.480268 -137.844437 1.357863 7.663195 50.725395 137.872513
[Rope3_Seg01]
24 0.000000 0.000000 0.000000 -128.882019 -30.630217 -85.691048 0.000000
25 0.000000 0.000000 0.000000 -136.791031 -40.706226 -73.873978 0.000000
[Rope3_Seg02]
24 139.999924 -0.000119 0.000060 7.973314 32.799839 10.662162 139.999924
25 139.999924 -0.000119 0.000060 -1.855287 35.526855 -0.462879 139.999924
[Rope3_Seg03]
24 139.999924 -0.000119 0.000119 11.737030 21.734243 9.104703 139.999924
25 139.999924 -0.000119 0.000119 6.247374 24.224878 5.401993 139.999924
[Rope3_Seg04]
24 139.999924 0.000119 0.000000 12.821582 14.104331 -0.602013 139.999924
25 139.999924 0.000119 0.000000 6.283255 14.057665 -2.197548 139.999924
[Rope3_Seg05]
24 139.999924 -0.000238 0.000060 19.026487 16.491098 -12.467728 139.999924
25 139.999924 -0.000238 0.000060 8.650816 15.728107 -12.476695 139.999924
[Rope3_Seg06]
24 139.999893 -0.000119 -0.000060 11.031017 8.638967 -15.234571 139.999893
25 139.999893 -0.000119 -0.000060 5.789045 10.584095 -13.355803 139.999893
[Rope3_Seg07]
24 139.999771 0.000060 -0.000119 4.094106 2.857434 -7.054119 139.999771
25 139.999771 0.000060 -0.000119 2.578590 4.498850 -6.068643 139.999771
[Rope3_Seg08]
24 139.999985 -0.000060 0.000000 2.246911 1.308786 -4.054769 139.999985
25 139.999985 -0.000060 0.000000 1.591099 2.376843 -3.542753 139.999985
[Rope3_Seg09]
24 90.185997 -0.000179 -0.000060 89.793228 -1.359877 -0.847183 90.185997
25 90.185997 -0.000179 -0.000060 89.793228 -1.359877 -0.847183 90.185997
[R_rear_hand01]
24 103.366196 -6.073594 -10.757982 -160.090088 14.865477 -24.717995 104.101845
25 103.366196 -6.073594 -10.757982 -160.090088 14.865479 -24.717995 104.101845
[R_rear_hand02]
24 100.509819 12.039542 -7.992327 -35.711582 16.148796 24.170401 101.543350
25 100.509819 12.039542 -7.992327 -35.711582 16.148796 24.170401 101.543350
[R_rear_hand03]
24 101.539970 5.215704 5.435467 83.699936 -25.497597 6.583542 101.819031
25 101.539970 5.215704 5.435467 83.699936 -25.497597 6.583542 101.819031
[Rope4_Seg01]
24 -0.000001 -0.000052 -0.000055 116.538139 33.131706 -24.608517 0.000076
25 0.000000 -0.000051 -0.000051 96.243881 39.364498 -41.951637 0.000072
[Rope4_Seg02]
24 139.999985 0.000060 0.000119 38.609291 10.164098 -10.256096 139.999985
25 139.999985 0.000060 0.000119 18.885448 9.531920 -8.988569 139.999985
[Rope4_Seg03]
24 139.999924 0.000000 -0.000238 38.686314 4.311993 -27.210711 139.999924
25 139.999924 0.000000 -0.000238 32.868488 12.323922 -22.814264 139.999924
[Rope4_Seg04]
24 139.999985 0.000000 0.000119 16.856379 -6.934581 -26.094469 139.999985
25 139.999985 0.000000 0.000119 23.399023 4.930884 -29.269472 139.999985
[Rope4_Seg05]
24 139.999802 -0.000060 -0.000119 1.266472 -26.731882 -9.765701 139.999802
25 139.999802 -0.000060 -0.000119 4.858253 -18.310738 -16.064257 139.999802
[Rope4_Seg06]
24 139.999924 0.000000 0.000060 8.087351 -42.584290 -5.670874 139.999924
25 139.999924 0.000000 0.000060 7.063251 -39.920891 -15.633815 139.999924
[Rope4_Seg07]
24 139.999802 0.000000 0.000000 6.813818 -15.156088 -1.145859 139.999802
25 139.999802 0.000000 0.000000 3.942745 -18.651840 -6.626481 139.999802
[Rope4_Seg08]
24 139.999924 0.000000 0.000119 2.327466 -5.724760 0.033825 139.999924
25 139.999924 0.000000 0.000119 -0.119641 -6.360435 -2.275339 139.999924
[Rope4_Seg09]
24 90.185791 0.000060 0.000060 -135.617828 2.228885 0.850567 90.185791
25 90.185791 0.000060 0.000060 -135.617828 2.228885 0.850567 90.185791
[L_rear_hand01]
24 101.696655 -8.392275 -7.654577 -36.242062 -14.765304 157.809067 102.329041
25 101.696655 -8.392275 -7.654577 -36.242058 -14.765300 157.809067 102.329041
[L_rear_hand02]
24 102.726799 -1.568258 5.773216 83.814362 23.151863 173.698151 102.900848
25 102.726799 -1.568258 5.773216 83.814362 23.151869 173.698151 102.900848
[L_rear_hand03]
24 104.552910 9.721220 -10.420293 -159.518845 -14.052428 -157.569275 105.519653
25 104.552910 9.721220 -10.420293 -159.518845 -14.052428 -157.569290 105.519653
